<svg xmlns="http://www.w3.org/2000/svg" xmlns:xlink="http://www.w3.org/1999/xlink" version="1.1" x="0px" y="0px" viewBox="0 0 90 112.5" enable-background="new 0 0 90 90" xml:space="preserve"><path d="M59.1,65.4c0,0,0.2,5.2-3.8,7.5c0,0-3.2,2-3.2,4.6h-7h-7c0-2.6-3.2-4.6-3.2-4.6c-4-2.3-3.7-7.6-3.7-7.6v-1.6h28V65.4  L59.1,65.4z M59.1,61.8v-4.7h-14h-14v4.7H59.1z M59.1,31.3c-0.3,0-0.6,0-1,0.1l-27,3.1c-2.1,0-3.7,1.5-3.7,3.3s1.7,3.3,3.7,3.3  c0.3,0,0.6,0,1-0.1l27-3.1c2.1,0,3.7-1.5,3.7-3.3C62.8,32.7,61.1,31.3,59.1,31.3 M58.9,21.8c-0.3,0-0.6,0-1,0.1l-27,3.1  c-2.1,0-3.7,1.5-3.7,3.3s1.7,3.3,3.7,3.3c0.3,0,0.6,0,1-0.1l27-3.1c2.1,0,3.7-1.5,3.7-3.3C62.6,23.3,60.9,21.8,58.9,21.8 M56.5,12.5  c-0.3,0-0.6,0-0.8,0.1l-23.9,2.8c-1.8,0-3.3,1.4-3.4,3.2c0,1.8,1.4,3.3,3.2,3.3c0.3,0,0.6,0,0.8-0.1l24-2.8c1.8,0,3.3-1.4,3.4-3.2  C59.8,14,58.3,12.5,56.5,12.5 M40,53.4c0,0,0-0.1,0-0.1c-0.1-2.6-0.3-5.2-1-7.7c-0.3-0.9-0.7-1.9-1.4-2.6c-1.2-1.1-3.2-1.2-4.7-0.4  c-1.4,0.7-2,2.3-1.6,3.8c0.3,0.8,0.9,1.4,1.3,2c0.5,0.6,0.8,1.3,1,2.1c0.3,0.9,0.4,1.8,0.5,2.6c0,0.1,0,0.4,0,0.6V54  c0,1,0.8,1.8,1.8,1.8h2.1c1,0,1.8-0.8,1.8-1.8L40,53.4C40,53.4,40,53.4,40,53.4z M50.4,53.4V54c0,1,0.8,1.8,1.8,1.8h2.1  c1,0,1.8-0.8,1.8-1.8v-0.3c0-0.2,0-0.4,0-0.6c0.1-0.9,0.2-1.8,0.5-2.6c0.2-0.7,0.6-1.5,1-2.1c0.5-0.7,1.1-1.2,1.3-2  c0.5-1.5-0.2-3-1.6-3.8c-1.4-0.8-3.4-0.8-4.7,0.4c-0.7,0.7-1.1,1.7-1.4,2.6c-0.8,2.5-1,5.1-1,7.7C50.4,53.3,50.4,53.3,50.4,53.4  C50.4,53.4,50.4,53.4,50.4,53.4z"/><text x="0" y="105" fill="#000000" font-size="5px" font-weight="bold" font-family="'Helvetica Neue', Helvetica, Arial-Unicode, Arial, Sans-serif">Created by Sarah Tan</text><text x="0" y="110" fill="#000000" font-size="5px" font-weight="bold" font-family="'Helvetica Neue', Helvetica, Arial-Unicode, Arial, Sans-serif">from the Noun Project</text></svg>